<svg xmlns="http://www.w3.org/2000/svg" width="126" height="32" viewBox="0 0 126 32">
    <g fill="#FFF" fill-rule="evenodd">
        <path d="M15.99 27.005v4.67H0V8.65h15.702v4.67H5.255v4.476h8.973v4.313H5.255v4.897h10.736zM24.696 32c-1.154 0-2.217-.222-3.189-.665a7.418 7.418 0 0 1-2.515-1.865 8.813 8.813 0 0 1-1.65-2.805c-.396-1.07-.593-2.243-.593-3.52 0-1.231.181-2.388.544-3.47.364-1.08.876-2.016 1.539-2.805a7.322 7.322 0 0 1 2.355-1.865c.908-.454 1.907-.68 2.996-.68 1.175 0 2.238.28 3.189.843a5.788 5.788 0 0 1 2.195 2.27V8h5.127v17.838c0 .519.08.88.24 1.086.16.206.443.33.85.373v4.379c-.47.108-.877.178-1.218.21a10.21 10.21 0 0 1-.962.05c-.897 0-1.623-.19-2.179-.568-.555-.379-.876-.925-.961-1.638l-.096-.876c-.598 1.06-1.405 1.849-2.42 2.368a7.044 7.044 0 0 1-3.252.778zm1.378-4.378c.705 0 1.383-.211 2.035-.633.651-.421 1.148-1 1.49-1.735v-3.568a4.676 4.676 0 0 0-1.555-2.124c-.715-.551-1.458-.827-2.227-.827-.555 0-1.062.124-1.522.373-.46.249-.86.578-1.201.99-.342.41-.604.886-.786 1.426a5.362 5.362 0 0 0-.272 1.72c0 .626.102 1.21.304 1.75.203.541.481 1.006.834 1.395.352.39.78.692 1.281.908a4.047 4.047 0 0 0 1.619.325zM43.46 32c-1.73 0-3.039-.546-3.925-1.638-.887-1.092-1.33-2.697-1.33-4.816V14.649h5.127v9.762c0 1.038.203 1.832.609 2.384.406.55.983.827 1.73.827.684 0 1.346-.184 1.987-.552.641-.367 1.207-1.005 1.698-1.913V14.649h5.128v11.189c0 .519.08.88.24 1.086.16.206.443.33.85.373v4.379c-.492.108-.909.178-1.25.21a9.918 9.918 0 0 1-.93.05c-1.837 0-2.884-.725-3.14-2.174l-.096-1.038c-.77 1.125-1.725 1.952-2.868 2.481-1.143.53-2.42.795-3.83.795zm21.33 0c-1.431 0-2.841-.232-4.23-.697-1.388-.465-2.563-1.14-3.525-2.027l1.827-3.179c1.025.714 2.024 1.265 2.996 1.654.972.39 1.907.584 2.804.584.662 0 1.175-.119 1.538-.357.363-.237.545-.583.545-1.037 0-.455-.23-.817-.689-1.087-.46-.27-1.266-.557-2.42-.86a33.78 33.78 0 0 1-2.867-.94c-.78-.303-1.416-.638-1.907-1.005-.491-.368-.844-.79-1.058-1.265-.213-.476-.32-1.038-.32-1.687 0-.865.17-1.654.513-2.367a5.322 5.322 0 0 1 1.41-1.816c.598-.498 1.308-.887 2.13-1.168a8.223 8.223 0 0 1 2.676-.422c1.26 0 2.441.173 3.541.52 1.1.345 2.163.972 3.189 1.88l-1.987 3.114c-.961-.67-1.816-1.157-2.564-1.46-.747-.302-1.474-.454-2.179-.454-.555 0-1.025.114-1.41.34-.384.228-.576.59-.576 1.087 0 .476.208.833.624 1.07.417.238 1.192.498 2.324.779 1.196.324 2.206.649 3.028.973.823.324 1.49.686 2.003 1.086.513.4.886.86 1.121 1.379s.353 1.135.353 1.848c0 1.687-.62 3.028-1.859 4.022-1.239.995-2.916 1.492-5.03 1.492zm15.69 0c-1.431 0-2.841-.232-4.23-.697-1.388-.465-2.563-1.14-3.525-2.027l1.827-3.179c1.025.714 2.024 1.265 2.996 1.654.972.39 1.907.584 2.804.584.662 0 1.175-.119 1.538-.357.363-.237.545-.583.545-1.037 0-.455-.23-.817-.689-1.087-.46-.27-1.266-.557-2.42-.86a33.78 33.78 0 0 1-2.867-.94c-.78-.303-1.416-.638-1.907-1.005-.491-.368-.844-.79-1.058-1.265-.213-.476-.32-1.038-.32-1.687 0-.865.17-1.654.513-2.367a5.322 5.322 0 0 1 1.41-1.816c.598-.498 1.308-.887 2.13-1.168a8.223 8.223 0 0 1 2.677-.422c1.26 0 2.44.173 3.54.52 1.1.345 2.164.972 3.189 1.88l-1.987 3.114c-.961-.67-1.816-1.157-2.563-1.46-.748-.302-1.474-.454-2.18-.454-.555 0-1.025.114-1.41.34-.384.228-.576.59-.576 1.087 0 .476.208.833.625 1.07.416.238 1.19.498 2.323.779 1.196.324 2.206.649 3.028.973.823.324 1.49.686 2.003 1.086.513.4.887.86 1.122 1.379.235.519.352 1.135.352 1.848 0 1.687-.62 3.028-1.859 4.022-1.239.995-2.916 1.492-5.03 1.492zm17.068 0c-1.431 0-2.707-.238-3.829-.714-1.122-.475-2.067-1.118-2.836-1.93a8.162 8.162 0 0 1-1.746-2.82 9.613 9.613 0 0 1-.593-3.358c0-1.167.197-2.286.593-3.356A8.162 8.162 0 0 1 90.884 17c.77-.81 1.714-1.46 2.836-1.946 1.122-.486 2.398-.73 3.83-.73 1.43 0 2.702.244 3.813.73 1.11.487 2.05 1.135 2.82 1.946a8.365 8.365 0 0 1 1.762 2.822c.406 1.07.609 2.189.609 3.356a9.613 9.613 0 0 1-.593 3.357 8.162 8.162 0 0 1-1.746 2.822c-.77.81-1.715 1.454-2.836 1.93-1.122.475-2.398.713-3.83.713zM93.8 23.178c0 1.34.353 2.417 1.058 3.227.705.811 1.602 1.217 2.691 1.217a3.35 3.35 0 0 0 1.474-.325 3.541 3.541 0 0 0 1.17-.908c.331-.389.593-.86.785-1.41a5.432 5.432 0 0 0 .289-1.8c0-1.341-.353-2.417-1.058-3.228-.705-.81-1.591-1.216-2.66-1.216a3.454 3.454 0 0 0-2.675 1.233c-.332.389-.593.859-.786 1.41a5.432 5.432 0 0 0-.288 1.8zm31.2 8.498h-5.127v-9.568c0-1.124-.209-1.94-.625-2.449-.417-.508-.967-.762-1.65-.762-.364 0-.727.076-1.09.227a4.496 4.496 0 0 0-1.057.633c-.342.27-.647.589-.914.957a4.573 4.573 0 0 0-.625 1.2v9.762h-5.127V14.649h4.615v2.854c.62-1.017 1.495-1.8 2.627-2.352 1.133-.551 2.436-.827 3.91-.827 1.09 0 1.965.2 2.628.6.662.4 1.175.92 1.538 1.557.363.638.603 1.335.72 2.092.118.757.177 1.492.177 2.205v10.898zM109.188 5.9c0 .97-.223 1.747-.668 2.335-.446.588-1.043.882-1.793.882-.801 0-1.42-.283-1.858-.85l-.053.733h-.996V0h1.084v3.357c.438-.543 1.041-.814 1.81-.814.77 0 1.375.291 1.814.873.44.582.66 1.379.66 2.39V5.9zm-1.084-.123c0-.738-.143-1.308-.428-1.71-.285-.403-.696-.604-1.23-.604-.716 0-1.23.332-1.542.996v2.742c.332.664.85.996 1.553.996.52 0 .924-.2 1.213-.603.289-.403.434-1.008.434-1.817zM111.73 9h-1.084V0h1.084v9zm1.448-3.229c0-.62.122-1.18.366-1.675a2.732 2.732 0 0 1 1.02-1.149c.435-.27.932-.404 1.49-.404.864 0 1.562.299 2.095.896.534.598.8 1.393.8 2.385V5.9c0 .618-.118 1.171-.354 1.662-.237.49-.574.872-1.014 1.145-.44.273-.944.41-1.515.41-.859 0-1.555-.299-2.088-.896-.534-.598-.8-1.389-.8-2.373V5.77zm1.09.13c0 .703.163 1.267.489 1.693.326.426.763.638 1.31.638.55 0 .988-.215 1.312-.647.324-.432.486-1.036.486-1.814 0-.695-.165-1.258-.495-1.69a1.574 1.574 0 0 0-1.315-.647c-.535 0-.967.212-1.295.638-.328.426-.492 1.035-.492 1.828zm5.783-.124c0-.988.228-1.774.685-2.358.457-.584 1.063-.876 1.817-.876.773 0 1.377.273 1.81.82l.053-.703h.99v6.188c0 .82-.243 1.466-.73 1.94-.486.472-1.139.708-1.96.708a3.26 3.26 0 0 1-1.341-.293c-.438-.195-.771-.463-1.002-.803l.563-.65c.464.574 1.033.861 1.705.861.527 0 .938-.148 1.233-.445.295-.297.442-.715.442-1.254v-.545c-.433.5-1.025.75-1.775.75-.742 0-1.343-.299-1.802-.896-.459-.598-.688-1.412-.688-2.444zm1.09.123c0 .715.146 1.277.44 1.685.292.408.702.612 1.23.612.683 0 1.185-.31 1.505-.931V4.37c-.332-.605-.83-.908-1.494-.908-.527 0-.94.205-1.236.615-.297.41-.445 1.018-.445 1.822z"/>
    </g>
</svg>
