<svg xmlns="http://www.w3.org/2000/svg" xmlns:xlink="http://www.w3.org/1999/xlink" width="360" height="150" viewBox="0 0 360 150">
    <defs>
        <path id="a" d="M7 0h346a7 7 0 0 1 7 7v143H0V7a7 7 0 0 1 7-7z"/>
    </defs>
    <g fill="none" fill-rule="evenodd">
        <mask id="b" fill="#fff">
            <use xlink:href="#a"/>
        </mask>
        <use fill="#F5F8FA" fill-rule="nonzero" xlink:href="#a"/>
        <g mask="url(#b)">
            <g transform="translate(-2)">
                <path fill="#CCF6DE" d="M0 260.617V0h363.682v260.617z"/>
                <path fill="#863C96" d="M246.337 29.634l2.232 1.17-6.532 12.479 6.837 13.06-6.837 13.064 6.837 13.06-6.837 13.059 6.837 13.06-4.915 9.386h-2.841l4.914-9.386-6.837-13.06 6.837-13.06-6.837-13.06 6.837-13.063-6.837-13.06z"/>
                <path fill="#863C96" d="M254.002 29.634l2.231 1.17-6.532 12.479 6.838 13.06-6.838 13.064 6.838 13.06-6.838 13.059 6.838 13.06-4.915 9.386h-2.842l4.91-9.386-6.832-13.06 6.833-13.06-6.833-13.06 6.833-13.063-6.833-13.06z"/>
                <path fill="#FFF" d="M193.86 122.03l2.01 2.01c-1.843 1.843-1.78 3.653-1.7 5.943.083 2.507.18 5.336-2.533 8.053-2.712 2.716-5.55 2.616-8.053 2.532-2.29-.079-4.1-.142-5.943 1.701s-1.78 3.653-1.7 5.943c.087 2.507.183 5.337-2.533 8.049-2.717 2.712-5.55 2.62-8.05 2.532-2.294-.079-4.103-.142-5.942 1.701-1.839 1.843-1.78 3.653-1.7 5.943.083 2.507.183 5.337-2.533 8.053-2.717 2.717-5.55 2.616-8.05 2.529-2.294-.08-4.103-.143-5.946 1.7s-1.776 3.653-1.697 5.943c.084 2.508.184 5.337-2.532 8.053a9.194 9.194 0 0 1-1.898 1.471v-3.598c1.726-1.805 1.672-3.586 1.588-5.826-.087-2.507-.184-5.336 2.533-8.053 2.716-2.716 5.55-2.616 8.049-2.528 2.294.08 4.104.142 5.943-1.701 1.838-1.843 1.78-3.653 1.7-5.943-.083-2.507-.183-5.336 2.533-8.053 2.716-2.716 5.55-2.616 8.049-2.528 2.294.08 4.104.138 5.947-1.701s1.776-3.653 1.697-5.947c-.084-2.507-.18-5.332 2.532-8.049 2.712-2.716 5.55-2.616 8.053-2.532 2.29.079 4.1.142 5.943-1.701s1.78-3.653 1.7-5.943c-.087-2.495-.183-5.328 2.533-8.053z"/>
                <circle cx="282.629" cy="128.645" r="1.408" fill="#F7EC13"/>
                <circle cx="288.258" cy="134.27" r="1.408" fill="#F7EC13"/>
                <circle cx="288.258" cy="128.645" r="1.408" fill="#F7EC13"/>
                <circle cx="288.258" cy="123.016" r="1.408" fill="#F7EC13"/>
                <circle cx="293.883" cy="139.896" r="1.408" fill="#F7EC13"/>
                <circle cx="293.883" cy="134.27" r="1.408" fill="#F7EC13"/>
                <circle cx="293.883" cy="128.645" r="1.408" fill="#F7EC13"/>
                <circle cx="293.883" cy="123.016" r="1.408" fill="#F7EC13"/>
                <circle cx="293.883" cy="117.391" r="1.408" fill="#F7EC13"/>
                <circle cx="299.508" cy="145.525" r="1.408" fill="#F7EC13"/>
                <circle cx="299.508" cy="139.896" r="1.408" fill="#F7EC13"/>
                <circle cx="299.508" cy="134.27" r="1.408" fill="#F7EC13"/>
                <circle cx="299.508" cy="128.645" r="1.408" fill="#F7EC13"/>
                <circle cx="299.508" cy="123.016" r="1.408" fill="#F7EC13"/>
                <circle cx="299.508" cy="117.391" r="1.408" fill="#F7EC13"/>
                <circle cx="299.508" cy="111.766" r="1.408" fill="#F7EC13"/>
                <circle cx="305.137" cy="151.15" r="1.408" fill="#F7EC13"/>
                <circle cx="305.137" cy="145.525" r="1.408" fill="#F7EC13"/>
                <circle cx="305.137" cy="139.896" r="1.408" fill="#F7EC13"/>
                <circle cx="305.137" cy="134.27" r="1.408" fill="#F7EC13"/>
                <circle cx="305.137" cy="128.645" r="1.408" fill="#F7EC13"/>
                <circle cx="305.137" cy="123.016" r="1.408" fill="#F7EC13"/>
                <circle cx="305.137" cy="117.391" r="1.408" fill="#F7EC13"/>
                <circle cx="305.137" cy="111.766" r="1.408" fill="#F7EC13"/>
                <circle cx="305.137" cy="106.137" r="1.408" fill="#F7EC13"/>
                <circle cx="310.762" cy="151.15" r="1.408" fill="#F7EC13"/>
                <circle cx="310.762" cy="145.525" r="1.408" fill="#F7EC13"/>
                <circle cx="310.762" cy="139.896" r="1.408" fill="#F7EC13"/>
                <circle cx="310.762" cy="134.27" r="1.408" fill="#F7EC13"/>
                <circle cx="310.762" cy="128.645" r="1.408" fill="#F7EC13"/>
                <circle cx="310.762" cy="123.016" r="1.408" fill="#F7EC13"/>
                <circle cx="310.762" cy="117.391" r="1.408" fill="#F7EC13"/>
                <circle cx="310.762" cy="111.766" r="1.408" fill="#F7EC13"/>
                <circle cx="310.762" cy="106.137" r="1.408" fill="#F7EC13"/>
                <circle cx="310.762" cy="100.512" r="1.408" fill="#F7EC13"/>
                <circle cx="316.387" cy="151.15" r="1.408" fill="#F7EC13"/>
                <circle cx="316.387" cy="145.525" r="1.408" fill="#F7EC13"/>
                <circle cx="316.387" cy="139.896" r="1.408" fill="#F7EC13"/>
                <circle cx="316.387" cy="134.27" r="1.408" fill="#F7EC13"/>
                <circle cx="316.387" cy="128.645" r="1.408" fill="#F7EC13"/>
                <circle cx="316.387" cy="123.016" r="1.408" fill="#F7EC13"/>
                <circle cx="316.387" cy="117.391" r="1.408" fill="#F7EC13"/>
                <circle cx="316.387" cy="111.766" r="1.408" fill="#F7EC13"/>
                <circle cx="316.387" cy="106.137" r="1.408" fill="#F7EC13"/>
                <circle cx="316.387" cy="100.512" r="1.408" fill="#F7EC13"/>
                <circle cx="316.387" cy="94.887" r="1.408" fill="#F7EC13"/>
                <circle cx="322.017" cy="151.15" r="1.408" fill="#F7EC13"/>
                <circle cx="322.017" cy="145.525" r="1.408" fill="#F7EC13"/>
                <circle cx="322.017" cy="139.896" r="1.408" fill="#F7EC13"/>
                <circle cx="322.017" cy="134.27" r="1.408" fill="#F7EC13"/>
                <circle cx="322.017" cy="128.645" r="1.408" fill="#F7EC13"/>
                <circle cx="322.017" cy="123.016" r="1.408" fill="#F7EC13"/>
                <circle cx="322.017" cy="117.391" r="1.408" fill="#F7EC13"/>
                <circle cx="322.017" cy="111.766" r="1.408" fill="#F7EC13"/>
                <circle cx="322.017" cy="106.137" r="1.408" fill="#F7EC13"/>
                <circle cx="322.017" cy="100.512" r="1.408" fill="#F7EC13"/>
                <circle cx="322.017" cy="94.887" r="1.408" fill="#F7EC13"/>
                <circle cx="322.017" cy="89.257" r="1.408" fill="#F7EC13"/>
                <circle cx="327.642" cy="151.15" r="1.408" fill="#F7EC13"/>
                <circle cx="327.642" cy="145.525" r="1.408" fill="#F7EC13"/>
                <circle cx="327.642" cy="139.896" r="1.408" fill="#F7EC13"/>
                <circle cx="327.642" cy="134.27" r="1.408" fill="#F7EC13"/>
                <circle cx="327.642" cy="128.645" r="1.408" fill="#F7EC13"/>
                <circle cx="327.642" cy="123.016" r="1.408" fill="#F7EC13"/>
                <circle cx="327.642" cy="117.391" r="1.408" fill="#F7EC13"/>
                <circle cx="327.642" cy="111.766" r="1.408" fill="#F7EC13"/>
                <circle cx="327.642" cy="106.137" r="1.408" fill="#F7EC13"/>
                <circle cx="327.642" cy="100.512" r="1.408" fill="#F7EC13"/>
                <circle cx="327.642" cy="94.887" r="1.408" fill="#F7EC13"/>
                <circle cx="327.642" cy="89.257" r="1.408" fill="#F7EC13"/>
                <circle cx="327.642" cy="83.632" r="1.408" fill="#F7EC13"/>
                <circle cx="333.267" cy="151.15" r="1.408" fill="#F7EC13"/>
                <circle cx="333.267" cy="145.525" r="1.408" fill="#F7EC13"/>
                <circle cx="333.267" cy="139.896" r="1.408" fill="#F7EC13"/>
                <circle cx="333.267" cy="134.27" r="1.408" fill="#F7EC13"/>
                <circle cx="333.267" cy="128.645" r="1.408" fill="#F7EC13"/>
                <circle cx="333.267" cy="123.016" r="1.408" fill="#F7EC13"/>
                <circle cx="333.267" cy="117.391" r="1.408" fill="#F7EC13"/>
                <circle cx="333.267" cy="111.766" r="1.408" fill="#F7EC13"/>
                <circle cx="333.267" cy="106.137" r="1.408" fill="#F7EC13"/>
                <circle cx="333.267" cy="100.512" r="1.408" fill="#F7EC13"/>
                <circle cx="333.267" cy="94.887" r="1.408" fill="#F7EC13"/>
                <circle cx="333.267" cy="89.257" r="1.408" fill="#F7EC13"/>
                <circle cx="333.267" cy="83.632" r="1.408" fill="#F7EC13"/>
                <circle cx="333.267" cy="78.003" r="1.408" fill="#F7EC13"/>
                <circle cx="338.896" cy="151.15" r="1.408" fill="#F7EC13"/>
                <circle cx="338.896" cy="145.525" r="1.408" fill="#F7EC13"/>
                <circle cx="338.896" cy="139.896" r="1.408" fill="#F7EC13"/>
                <circle cx="338.896" cy="134.27" r="1.408" fill="#F7EC13"/>
                <circle cx="338.896" cy="128.645" r="1.408" fill="#F7EC13"/>
                <circle cx="338.896" cy="123.016" r="1.408" fill="#F7EC13"/>
                <circle cx="338.896" cy="117.391" r="1.408" fill="#F7EC13"/>
                <circle cx="338.896" cy="111.766" r="1.408" fill="#F7EC13"/>
                <circle cx="338.896" cy="106.137" r="1.408" fill="#F7EC13"/>
                <circle cx="338.896" cy="100.512" r="1.408" fill="#F7EC13"/>
                <circle cx="338.896" cy="94.887" r="1.408" fill="#F7EC13"/>
                <circle cx="338.896" cy="89.257" r="1.408" fill="#F7EC13"/>
                <circle cx="338.896" cy="83.632" r="1.408" fill="#F7EC13"/>
                <circle cx="338.896" cy="78.003" r="1.408" fill="#F7EC13"/>
                <circle cx="338.896" cy="72.378" r="1.408" fill="#F7EC13"/>
                <circle cx="344.521" cy="151.15" r="1.408" fill="#F7EC13"/>
                <circle cx="344.521" cy="145.525" r="1.408" fill="#F7EC13"/>
                <circle cx="344.521" cy="139.896" r="1.408" fill="#F7EC13"/>
                <circle cx="344.521" cy="134.27" r="1.408" fill="#F7EC13"/>
                <circle cx="344.521" cy="128.645" r="1.408" fill="#F7EC13"/>
                <circle cx="344.521" cy="123.016" r="1.408" fill="#F7EC13"/>
                <circle cx="344.521" cy="117.391" r="1.408" fill="#F7EC13"/>
                <circle cx="344.521" cy="111.766" r="1.408" fill="#F7EC13"/>
                <circle cx="344.521" cy="106.137" r="1.408" fill="#F7EC13"/>
                <circle cx="344.521" cy="100.512" r="1.408" fill="#F7EC13"/>
                <circle cx="344.521" cy="94.887" r="1.408" fill="#F7EC13"/>
                <circle cx="344.521" cy="89.257" r="1.408" fill="#F7EC13"/>
                <circle cx="344.521" cy="83.632" r="1.408" fill="#F7EC13"/>
                <circle cx="344.521" cy="78.003" r="1.408" fill="#F7EC13"/>
                <circle cx="344.521" cy="72.378" r="1.408" fill="#F7EC13"/>
                <circle cx="344.521" cy="66.753" r="1.408" fill="#F7EC13"/>
                <circle cx="350.146" cy="151.15" r="1.408" fill="#F7EC13"/>
                <circle cx="350.146" cy="145.525" r="1.408" fill="#F7EC13"/>
                <circle cx="350.146" cy="139.896" r="1.408" fill="#F7EC13"/>
                <circle cx="350.146" cy="134.27" r="1.408" fill="#F7EC13"/>
                <circle cx="350.146" cy="128.645" r="1.408" fill="#F7EC13"/>
                <circle cx="350.146" cy="123.016" r="1.408" fill="#F7EC13"/>
                <circle cx="350.146" cy="117.391" r="1.408" fill="#F7EC13"/>
                <circle cx="350.146" cy="111.766" r="1.408" fill="#F7EC13"/>
                <circle cx="350.146" cy="106.137" r="1.408" fill="#F7EC13"/>
                <circle cx="350.146" cy="100.512" r="1.408" fill="#F7EC13"/>
                <circle cx="350.146" cy="94.887" r="1.408" fill="#F7EC13"/>
                <circle cx="350.146" cy="89.257" r="1.408" fill="#F7EC13"/>
                <circle cx="350.146" cy="83.632" r="1.408" fill="#F7EC13"/>
                <circle cx="350.146" cy="78.003" r="1.408" fill="#F7EC13"/>
                <circle cx="350.146" cy="72.378" r="1.408" fill="#F7EC13"/>
                <circle cx="350.146" cy="66.753" r="1.408" fill="#F7EC13"/>
                <circle cx="350.146" cy="61.124" r="1.408" fill="#F7EC13"/>
                <circle cx="355.776" cy="151.15" r="1.408" fill="#F7EC13"/>
                <circle cx="355.776" cy="145.525" r="1.408" fill="#F7EC13"/>
                <circle cx="355.776" cy="139.896" r="1.408" fill="#F7EC13"/>
                <circle cx="355.776" cy="134.27" r="1.408" fill="#F7EC13"/>
                <circle cx="355.776" cy="128.645" r="1.408" fill="#F7EC13"/>
                <circle cx="355.776" cy="123.016" r="1.408" fill="#F7EC13"/>
                <circle cx="355.776" cy="117.391" r="1.408" fill="#F7EC13"/>
                <circle cx="355.776" cy="111.766" r="1.408" fill="#F7EC13"/>
                <circle cx="355.776" cy="106.137" r="1.408" fill="#F7EC13"/>
                <circle cx="355.776" cy="100.512" r="1.408" fill="#F7EC13"/>
                <circle cx="355.776" cy="94.887" r="1.408" fill="#F7EC13"/>
                <circle cx="355.776" cy="89.257" r="1.408" fill="#F7EC13"/>
                <circle cx="355.776" cy="83.632" r="1.408" fill="#F7EC13"/>
                <circle cx="355.776" cy="78.003" r="1.408" fill="#F7EC13"/>
                <circle cx="355.776" cy="72.378" r="1.408" fill="#F7EC13"/>
                <circle cx="355.776" cy="66.753" r="1.408" fill="#F7EC13"/>
                <circle cx="355.776" cy="61.124" r="1.408" fill="#F7EC13"/>
                <circle cx="355.776" cy="55.499" r="1.408" fill="#F7EC13"/>
                <circle cx="361.401" cy="151.15" r="1.408" fill="#F7EC13"/>
                <circle cx="361.401" cy="145.525" r="1.408" fill="#F7EC13"/>
                <circle cx="361.401" cy="139.896" r="1.408" fill="#F7EC13"/>
                <circle cx="361.401" cy="134.27" r="1.408" fill="#F7EC13"/>
                <circle cx="361.401" cy="128.645" r="1.408" fill="#F7EC13"/>
                <circle cx="361.401" cy="123.016" r="1.408" fill="#F7EC13"/>
                <circle cx="361.401" cy="117.391" r="1.408" fill="#F7EC13"/>
                <circle cx="361.401" cy="111.766" r="1.408" fill="#F7EC13"/>
                <circle cx="361.401" cy="106.137" r="1.408" fill="#F7EC13"/>
                <circle cx="361.401" cy="100.512" r="1.408" fill="#F7EC13"/>
                <circle cx="361.401" cy="94.887" r="1.408" fill="#F7EC13"/>
                <circle cx="361.401" cy="89.257" r="1.408" fill="#F7EC13"/>
                <circle cx="361.401" cy="83.632" r="1.408" fill="#F7EC13"/>
                <circle cx="361.401" cy="78.003" r="1.408" fill="#F7EC13"/>
                <circle cx="361.401" cy="72.378" r="1.408" fill="#F7EC13"/>
                <circle cx="361.401" cy="66.753" r="1.408" fill="#F7EC13"/>
                <circle cx="361.401" cy="61.124" r="1.408" fill="#F7EC13"/>
                <circle cx="361.401" cy="55.499" r="1.408" fill="#F7EC13"/>
                <circle cx="361.401" cy="49.873" r="1.408" fill="#F7EC13"/>
                <path fill="#863C96" d="M15.396 260.617V114.39h4.388v146.227z"/>
                <path fill="#FFF" d="M8.12 45.134L0 53.238V49.96a45.89 45.89 0 0 1 8.12-4.827zM19.696 41.499L0 61.199V57.22l14.506-14.505a45.594 45.594 0 0 1 5.19-1.216zM28.334 40.817L0 69.156v-3.962l24.239-24.239a41.86 41.86 0 0 1 4.095-.138zM32.108 41.022c1.176.112 2.345.269 3.506.472L0 77.11v-3.975l32.108-32.112zM38.903 42.184c1.037.259 2.09.552 3.097.882l-42 42v-3.991l38.903-38.891zM44.921 44.123c.93.37 1.853.775 2.767 1.212L0 93.023v-3.979l44.921-44.921zM50.312 46.693c.836.468 1.664.966 2.483 1.492L0 100.98V97l50.312-50.308zM55.164 49.81a44.56 44.56 0 0 1 2.232 1.748L0 108.937v-3.979l55.164-55.147zM59.49 53.43c.338.317.672.643 1.007.978.334.334.66.673.982 1.011L0 116.894v-3.979L59.49 53.43zM63.347 57.525c.61.728 1.19 1.476 1.75 2.232L.202 124.654l-.201-.15v-3.628l63.347-63.35zM5.04 127.772l63.176-63.176a49.7 49.7 0 0 0-1.497-2.482L2.553 126.276a38.912 38.912 0 0 0 2.487 1.496zM10.448 130.338l60.333-60.35a43.337 43.337 0 0 0-1.211-2.767L7.66 129.134c.914.432 1.843.833 2.788 1.204zM16.445 132.277l56.271-56.276c-.256-1.039-.55-2.07-.881-3.092l-58.508 58.507c1.04.318 2.079.605 3.118.861zM23.24 133.443l50.647-50.647a49.597 49.597 0 0 0-.468-3.51l-53.69 53.685c1.165.198 2.335.355 3.511.472zM31.113 133.522L73.97 90.687c.1-1.366.14-2.732.121-4.1l-47.077 47.057c1.368.02 2.734-.021 4.1-.122zM40.842 131.75l31.344-31.343a46.125 46.125 0 0 0 1.212-5.19l-37.746 37.745a46.116 46.116 0 0 0 5.19-1.212zM60.5 120.053a46.346 46.346 0 0 0 9.291-13.269l-22.567 22.568a46.363 46.363 0 0 0 13.277-9.299z"/>
                <path fill="#863C96" d="M124.855 138.734H97.344l27.51 27.51z"/>
                <path fill="#F7EC13" d="M134.567 75.454c0-10.738-8.7-19.445-19.437-19.454v38.907c10.738-.009 19.437-8.716 19.437-19.453z"/>
                <path fill="#FFF" d="M150.247 39.016l-2.925 2.925 3.042 3.039-3.042 3.042 2.925 2.925 3.043-3.042 3.038 3.042 2.925-2.925-3.038-3.042 3.038-3.039-2.925-2.925-3.038 3.043z"/>
                <circle cx="61.479" cy="145.901" r="2.541" fill="#212121"/>
                <circle cx="229.47" cy="49.368" r="2.541" fill="#FFF"/>
                <path fill="#212121" fill-rule="nonzero" d="M38.143 122.527a2.54 2.54 0 1 0 5.081 0 2.54 2.54 0 0 0-5.081 0zm4.037 0a1.496 1.496 0 1 1-1.496-1.496 1.496 1.496 0 0 1 1.5 1.496h-.004z"/>
                <path fill="#FFF" fill-rule="nonzero" d="M81.526 63.522a2.54 2.54 0 1 0 5.082 0 2.54 2.54 0 0 0-5.082 0zm4.037 0a1.496 1.496 0 1 1-2.992 0 1.496 1.496 0 0 1 2.992 0z"/>
                <circle cx="112.431" cy="47.176" r="2.194" fill="#212121" transform="rotate(-45 112.43 47.176)"/>
                <circle cx="118.64" cy="40.972" r="2.194" fill="#212121" transform="rotate(-45 118.64 40.972)"/>
                <circle cx="124.842" cy="34.766" r="2.194" fill="#212121" transform="rotate(-45 124.842 34.766)"/>
                <circle cx="131.048" cy="28.56" r="2.194" fill="#212121" transform="rotate(-45 131.048 28.56)"/>
                <circle cx="137.254" cy="22.353" r="2.194" fill="#212121" transform="rotate(-45 137.254 22.353)"/>
                <circle cx="143.46" cy="16.147" r="2.194" fill="#212121" transform="rotate(-45 143.46 16.147)"/>
                <circle cx="149.663" cy="9.943" r="2.194" fill="#212121" transform="rotate(-45 149.663 9.943)"/>
                <circle cx="155.869" cy="3.737" r="2.194" fill="#212121" transform="rotate(-45 155.869 3.737)"/>
            </g>
        </g>
    </g>
</svg>
