<?xml version="1.0" standalone="no"?>
<!DOCTYPE svg PUBLIC "-//W3C//DTD SVG 1.1//EN" "http://www.w3.org/Graphics/SVG/1.1/DTD/svg11.dtd">
<!--Generator: Xara Designer (www.xara.com), SVG filter version: 6.1.0.16-->
<svg stroke-width="0.501" stroke-linejoin="bevel" fill-rule="evenodd" xmlns:xlink="http://www.w3.org/1999/xlink" xmlns="http://www.w3.org/2000/svg" version="1.1" overflow="visible" width="595.277pt" height="174.22pt" viewBox="0 0 595.277 174.22">
 <defs>
  <linearGradient id="LinearGradient" gradientUnits="userSpaceOnUse" x1="0" y1="0" x2="266.895" y2="-18.653" gradientTransform="translate(31.745 135.206)">
   <stop offset="0" stop-color="#ff9900"/>
   <stop offset="1" stop-color="#cb7a00"/>
  </linearGradient>
  <linearGradient id="LinearGradient_1" gradientUnits="userSpaceOnUse" x1="0" y1="0" x2="-142.58" y2="51.805" gradientTransform="translate(231.632 30.532)">
   <stop offset="0" stop-color="#cb7a00"/>
   <stop offset="1" stop-color="#ff9900"/>
  </linearGradient>
 </defs>
 <g id="Document" fill="none" stroke="black" font-family="Times New Roman" font-size="16" transform="scale(1 -1)">
  <g id="Spread" transform="translate(0 -174.22)">
   <g id="Layer 1">
    <g id="Group" stroke-linejoin="miter">
     <path d="M 80.874,174.176 C 79.873,174.039 78.915,173.705 78.049,173.18 L 3.654,130.672 C 1.397,129.367 0.005,126.96 0.001,124.358 L 0.001,49.963 C -0.01,47.482 1.245,45.167 3.324,43.819 L 67.093,1.307 C 69.403,-0.183 72.356,-0.25 74.731,1.141 L 149.123,43.649 C 151.382,44.953 152.772,47.355 152.778,49.963 L 152.778,124.358 C 152.786,126.839 151.537,129.149 149.456,130.502 L 85.687,173.014 C 84.272,173.953 82.565,174.362 80.874,174.176 Z" stroke="none" fill-rule="evenodd" fill="#000000" stroke-width="10.319" marker-start="none" marker-end="none" stroke-miterlimit="79.8403193612775"/>
     <g id="Group_1" stroke="none" fill-rule="evenodd" stroke-width="5.41" stroke-miterlimit="79.8403193612775">
      <path d="M 6.044,125.057 L 67.935,84.807 L 67.935,9.051 L 6.044,49.303 L 6.044,125.057 Z" fill="#eeba00" marker-start="none" marker-end="none"/>
      <path d="M 81.799,168.349 L 142.178,129.621 L 70.98,89.372 L 10.608,129.621 L 81.799,168.349 Z" marker-start="none" marker-end="none" fill="url(#LinearGradient)"/>
      <path d="M 146.736,125.057 L 146.736,49.303 L 74.02,9.051 L 74.02,84.807 L 146.736,125.057 Z" marker-start="none" marker-end="none" fill="url(#LinearGradient_1)"/>
     </g>
     <g id="Group_2" fill-rule="nonzero" stroke-linecap="round" stroke="#000000" stroke-width="3.649" fill="#eeba00" stroke-miterlimit="79.8403193612775">
      <g id="Group_3">
       <path d="M 194.737,116.473 L 238.707,116.473 L 238.707,104.107 L 212.6,104.107 L 212.6,94.057 L 234.899,94.057 L 234.899,82.436 L 212.6,82.436 L 212.6,58.92 L 194.737,58.92 L 194.737,116.473 Z" marker-start="none" marker-end="none"/>
       <path d="M 250.6,116.473 L 283.891,116.473 C 289.44,116.473 293.699,115.098 296.67,112.352 C 299.64,109.603 301.127,106.2 301.127,102.144 C 301.127,98.74 300.065,95.823 297.947,93.389 C 296.532,91.767 294.465,90.484 291.743,89.543 C 295.88,88.547 298.92,86.84 300.87,84.418 C 302.82,81.998 303.795,78.956 303.795,75.291 C 303.795,72.308 303.102,69.625 301.716,67.242 C 300.328,64.861 298.431,62.977 296.023,61.59 C 294.53,60.726 292.28,60.097 289.271,59.705 C 285.266,59.181 282.61,58.92 281.301,58.92 L 250.6,58.92 L 250.6,116.473 Z M 268.542,93.898 L 276.275,93.898 C 279.051,93.898 280.98,94.377 282.065,95.332 C 283.153,96.288 283.695,97.667 283.695,99.473 C 283.695,101.149 283.153,102.457 282.065,103.401 C 280.98,104.341 279.089,104.813 276.392,104.814 L 268.542,104.814 L 268.542,93.898 Z M 268.542,71.287 L 277.61,71.287 C 280.672,71.287 282.832,71.831 284.089,72.915 C 285.345,74.003 285.972,75.461 285.972,77.293 C 285.972,78.993 285.349,80.362 284.107,81.396 C 282.864,82.43 280.686,82.947 277.571,82.947 L 268.542,82.947 L 268.542,71.287 Z" marker-start="none" marker-end="none"/>
       <path d="M 349.417,68.421 L 329.159,68.421 L 326.372,58.92 L 308.195,58.92 L 329.827,116.473 L 349.22,116.473 L 370.853,58.92 L 352.244,58.92 L 349.417,68.421 Z M 345.688,80.865 L 339.327,101.556 L 333.007,80.865 L 345.688,80.865 Z" marker-start="none" marker-end="none"/>
       <path d="M 377.801,74.937 L 394.878,74.937 L 394.878,58.92 L 377.801,58.92 L 377.801,74.937 Z" marker-start="none" marker-end="none"/>
       <path d="M 405.832,58.92 L 405.832,116.473 L 435.473,116.473 C 440.969,116.473 445.169,116.002 448.076,115.059 C 450.981,114.117 453.323,112.371 455.101,109.819 C 456.881,107.268 457.771,104.159 457.771,100.494 C 457.771,97.302 457.092,94.547 455.73,92.231 C 454.37,89.915 452.498,88.038 450.117,86.597 C 448.598,85.681 446.518,84.923 443.874,84.32 C 445.994,83.613 447.538,82.906 448.507,82.201 C 449.16,81.729 450.109,80.723 451.353,79.178 C 452.596,77.633 453.427,76.442 453.845,75.605 L 462.444,58.92 L 442.344,58.92 L 432.843,76.508 C 431.639,78.784 430.566,80.264 429.624,80.945 C 428.342,81.833 426.888,82.279 425.267,82.279 L 423.694,82.279 L 423.694,58.92 L 405.832,58.92 Z M 423.694,93.153 L 431.193,93.153 C 432.004,93.154 433.576,93.415 435.905,93.939 C 437.082,94.174 438.044,94.775 438.79,95.745 C 439.536,96.714 439.909,97.826 439.909,99.082 C 439.909,100.94 439.321,102.366 438.142,103.36 C 436.965,104.355 434.753,104.853 431.508,104.853 L 423.694,104.853 L 423.694,93.153 Z" marker-start="none" marker-end="none"/>
       <path d="M 506.495,116.473 L 524.239,116.473 L 524.239,82.162 C 524.239,78.76 523.709,75.546 522.649,72.523 C 521.589,69.501 519.926,66.856 517.663,64.593 C 515.399,62.328 513.024,60.739 510.538,59.823 C 507.083,58.541 502.935,57.899 498.093,57.899 C 495.294,57.899 492.237,58.097 488.926,58.487 C 485.614,58.881 482.848,59.659 480.624,60.824 C 478.398,61.989 476.364,63.645 474.518,65.79 C 472.673,67.936 471.41,70.147 470.729,72.425 C 469.63,76.09 469.081,79.335 469.081,82.162 L 469.081,116.473 L 486.826,116.473 L 486.826,81.337 C 486.826,78.196 487.697,75.742 489.436,73.975 C 491.177,72.208 493.592,71.326 496.678,71.326 C 499.742,71.326 502.143,72.196 503.884,73.936 C 505.624,75.676 506.495,78.142 506.495,81.337 L 506.495,116.473 Z" marker-start="none" marker-end="none"/>
       <path d="M 538.413,116.473 L 555.018,116.473 L 576.688,84.634 L 576.688,116.473 L 593.452,116.473 L 593.452,58.92 L 576.688,58.92 L 555.135,90.523 L 555.135,58.92 L 538.413,58.92 L 538.413,116.473 Z" marker-start="none" marker-end="none"/>
      </g>
     </g>
    </g>
   </g>
  </g>
 </g>
</svg>
